<?xml version="1.0" encoding="UTF-8" standalone="no"?>
<!-- Created with Inkscape (http://www.inkscape.org/) -->

<svg
   width="93.44381mm"
   height="93.492706mm"
   viewBox="0 0 93.44381 93.492706"
   version="1.1"
   id="svg5"
   inkscape:version="1.1 (c4e8f9e, 2021-05-24)"
   sodipodi:docname="test_logo_academy.svg"
   inkscape:export-filename="/Users/nathanderave/Desktop/high_res_academy_logo.png"
   inkscape:export-xdpi="217.46001"
   inkscape:export-ydpi="217.46001"
   xmlns:inkscape="http://www.inkscape.org/namespaces/inkscape"
   xmlns:sodipodi="http://sodipodi.sourceforge.net/DTD/sodipodi-0.dtd"
   xmlns="http://www.w3.org/2000/svg"
   xmlns:svg="http://www.w3.org/2000/svg">
  <sodipodi:namedview
     id="namedview7"
     pagecolor="#ffffff"
     bordercolor="#666666"
     borderopacity="1.0"
     inkscape:pageshadow="2"
     inkscape:pageopacity="0.0"
     inkscape:pagecheckerboard="0"
     inkscape:document-units="mm"
     showgrid="false"
     inkscape:zoom="2.2483908"
     inkscape:cx="218.82317"
     inkscape:cy="180.79597"
     inkscape:window-width="3440"
     inkscape:window-height="1325"
     inkscape:window-x="0"
     inkscape:window-y="25"
     inkscape:window-maximized="0"
     inkscape:current-layer="g261"
     showguides="true"
     inkscape:guide-bbox="true" />
  <defs
     id="defs2" />
  <g
     inkscape:label="Layer 1"
     inkscape:groupmode="layer"
     id="layer1"
     transform="translate(-96.994198,-34.545986)">
    <g
       id="g261"
       transform="matrix(0.61092641,0,0,0.61092641,110.44167,10.327774)">
      <path
         id="path224"
         style="fill:#3d5fab;stroke:none;stroke-width:0.0810234"
         d="m 53.965079,39.643459 c -0.704899,-0.0095 -1.405094,0.01275 -2.087606,0.10235 -1.59835,0.209838 -3.251367,0.147881 -4.861215,0.303667 -4.45855,0.431455 -8.890209,1.251506 -13.206568,2.451332 C 16.129019,47.415596 0.30439149,58.945353 -9.6434985,74.390107 -22.20916,93.899075 -25.55389,118.62786 -18.04468,140.66656 c 2.58265,7.57974 6.340371,14.70299 11.0902015,21.14759 4.59102,6.22907 10.210987,11.71693 16.457247,16.27369 8.2172195,5.9941 17.5353965,10.10936 27.3858855,12.54087 8.883401,2.19168 18.415165,2.57492 27.467093,1.38469 27.463667,-3.61121 51.408683,-22.31268 61.430463,-48.18668 3.03432,-7.83333 4.71919,-16.16943 5.08622,-24.54968 C 131.83013,97.414269 122.929,75.398874 106.89286,60.461165 98.089664,52.260953 87.495558,46.132195 75.941627,42.75626 69.955619,41.007298 63.699371,39.944116 57.46867,39.791486 56.328322,39.763548 55.139905,39.659274 53.965079,39.643459 Z m -21.93764,45.117015 v 43.267086 9.23606 c 0,1.33851 -0.05822,2.99914 1.053108,3.95359 1.394002,1.19672 3.968851,0.90847 5.671561,0.90847 v 2.6738 l -5.347591,0.41193 -7.292246,0.55997 v -5.67156 c -1.704239,1.95104 -3.590187,3.55558 -5.995526,4.58377 -7.51589,3.21419 -16.3718835,-0.74086 -20.65445351,-7.25756 -6.41525999,-9.76251 -3.01775699,-23.59147 7.52824301,-28.86447 2.98126,-1.49059 6.4701295,-2.29488 9.8044785,-1.93789 2.64768,0.2835 5.120963,1.24287 7.211042,2.91487 0.865569,0.69242 1.523149,1.56825 2.349827,2.28385 V 95.860826 c 0,-1.825381 0.490473,-4.836464 -0.828107,-6.316114 -1.296688,-1.455097 -4.146737,-1.137693 -5.897405,-1.137693 v -2.673796 l 5.186027,-0.412783 z m 62.861676,9.497429 c 0.712655,0.02392 1.427761,0.07623 2.139204,0.124339 1.963392,0.132724 3.931511,0.231367 5.896561,0.337504 0.50209,0.02711 1.02721,0.02538 1.55048,0.0406 0.26164,0.0076 0.52329,0.01992 0.78074,0.04145 0.25745,0.02153 0.51096,0.05225 0.7579,0.09897 0.0997,0.01886 0.19352,0.0536 0.28252,0.09897 0.089,0.04537 0.17313,0.101853 0.25376,0.164096 0.16127,0.124486 0.30838,0.272809 0.45,0.406862 0.42689,0.404026 0.87444,0.786878 1.30603,1.185914 0.83842,0.775192 1.68157,1.547193 2.53,2.3143 0.84842,0.767105 1.70158,1.528732 2.5596,2.282152 0.26227,0.23033 0.57533,0.46973 0.87209,0.72321 0.14838,0.12675 0.2926,0.25699 0.42463,0.39164 0.13202,0.13465 0.25203,0.27389 0.35103,0.41786 0.0427,0.0621 0.0741,0.12911 0.0939,0.19878 0.0198,0.0697 0.0277,0.14166 0.0245,0.21316 -0.003,0.0715 -0.018,0.14298 -0.044,0.21062 -0.026,0.0677 -0.0629,0.13138 -0.11166,0.18948 -0.0585,0.0696 -0.12524,0.11974 -0.19793,0.15564 -0.0727,0.0359 -0.15126,0.058 -0.23261,0.0702 -0.16271,0.0244 -0.33737,0.011 -0.5016,8.5e-4 -0.68209,-0.0421 -1.36432,-0.0797 -2.04701,-0.11081 -2.04726,-0.0933 -4.09378,-0.22867 -6.14017,-0.33921 -0.47947,-0.0259 -0.98038,-0.0234 -1.47942,-0.0372 -0.24953,-0.007 -0.4979,-0.0176 -0.74352,-0.0381 -0.24563,-0.0204 -0.4882,-0.0506 -0.72407,-0.0956 -0.0827,-0.0158 -0.15861,-0.044 -0.23007,-0.0812 -0.0715,-0.0372 -0.13839,-0.0828 -0.20217,-0.13365 -0.12755,-0.10166 -0.24308,-0.22323 -0.36119,-0.33243 -0.41935,-0.38771 -0.84342,-0.77312 -1.27219,-1.15038 -0.888764,-0.78218 -1.758889,-1.58612 -2.628962,-2.389576 -0.870073,-0.803455 -1.740159,-1.606573 -2.628963,-2.388734 -0.262147,-0.230705 -0.574639,-0.469738 -0.871247,-0.723218 -0.148305,-0.126743 -0.292519,-0.25708 -0.424627,-0.391639 -0.132108,-0.13456 -0.251666,-0.274066 -0.351037,-0.417859 -0.04287,-0.06202 -0.07411,-0.129111 -0.09389,-0.198781 -0.01978,-0.06967 -0.02855,-0.141606 -0.02538,-0.213161 0.0032,-0.07155 0.01797,-0.142112 0.04399,-0.209773 0.02601,-0.06766 0.06293,-0.132321 0.111654,-0.19032 0.05729,-0.0682 0.121839,-0.116712 0.190319,-0.151411 0.06848,-0.0347 0.141398,-0.05595 0.217387,-0.06767 0.151987,-0.02344 0.315364,-0.0113 0.475381,-0.0059 z m 2.003864,5.57005 c 0.322497,0.231817 0.636155,0.484287 0.943148,0.748597 0.306992,0.2643 0.608009,0.5403 0.905079,0.82133 0.594146,0.56209 1.173956,1.14198 1.761954,1.67652 0.26577,0.24162 0.53302,0.52775 0.81795,0.78835 0.14247,0.1303 0.28911,0.25391 0.4424,0.36288 0.15328,0.10897 0.31318,0.20295 0.4813,0.27322 0.17336,0.0725 0.35916,0.1224 0.55235,0.15648 0.19319,0.0341 0.39372,0.0528 0.59549,0.0634 0.40355,0.0212 0.81288,0.0102 1.18337,0.0271 0.77589,0.0354 1.5817,0.0401 2.38451,0.0685 0.4014,0.0142 0.80172,0.0348 1.19775,0.0677 0.39603,0.0329 0.78726,0.0778 1.16984,0.14296 l -0.93553,2.23901 c -0.0838,0.2005 -0.15372,0.4025 -0.25376,0.58197 -0.05,0.0897 -0.10698,0.17357 -0.17763,0.24868 -0.0707,0.0751 -0.15481,0.14201 -0.25715,0.19624 -0.11078,0.0587 -0.22551,0.10722 -0.34342,0.14803 -0.11792,0.0408 -0.23872,0.0737 -0.36204,0.099 -0.24663,0.0506 -0.50263,0.0726 -0.76043,0.0753 -0.2578,0.003 -0.51724,-0.0144 -0.77228,-0.0406 -0.25505,-0.0263 -0.50515,-0.0619 -0.74352,-0.0981 -0.30499,-0.0464 -0.61106,-0.10214 -0.91608,-0.16749 -0.30502,-0.0654 -0.60969,-0.1403 -0.91269,-0.22415 -0.30301,-0.0839 -0.60444,-0.17727 -0.90339,-0.27914 -0.29896,-0.10188 -0.59531,-0.21218 -0.88817,-0.33158 -0.29285,-0.1194 -0.58229,-0.24759 -0.86701,-0.38402 -0.28473,-0.13645 -0.564555,-0.28095 -0.83911,-0.43394 -0.27455,-0.15299 -0.543773,-0.3148 -0.806115,-0.48384 -0.262337,-0.16904 -0.517424,-0.34575 -0.765513,-0.53036 -0.206712,-0.1538 -0.42992,-0.3179 -0.651317,-0.49483 -0.221398,-0.17693 -0.441345,-0.36652 -0.642864,-0.57012 -0.100757,-0.10179 -0.196594,-0.20723 -0.285901,-0.31635 -0.08931,-0.10913 -0.171766,-0.2223 -0.245304,-0.3392 -0.07354,-0.11689 -0.138566,-0.23777 -0.192013,-0.36287 -0.05345,-0.12511 -0.0953,-0.2545 -0.124343,-0.38826 -0.02197,-0.10122 -0.0242,-0.20072 -0.01268,-0.29859 0.01151,-0.0979 0.03672,-0.19346 0.06936,-0.28844 0.06528,-0.18998 0.160267,-0.37539 0.235997,-0.55658 z m 14.353571,5.268927 h 8.5e-4 l 1.41514,0.10488 -1.47181,3.52305 c -0.11684,0.27953 -0.26184,0.56879 -0.39502,0.8611 -0.0666,0.14615 -0.13008,0.29254 -0.1861,0.43985 -0.056,0.14731 -0.10474,0.29528 -0.14041,0.44239 -0.013,0.0537 -0.0124,0.10545 -0.004,0.15649 0.008,0.051 0.0243,0.10105 0.044,0.15056 0.0395,0.099 0.092,0.19622 0.12011,0.29605 0.0394,0.13994 0.0548,0.28676 0.0465,0.43225 -0.008,0.14548 -0.0399,0.2902 -0.0939,0.42462 -0.0588,0.14593 -0.13234,0.25235 -0.2157,0.33666 -0.0834,0.0843 -0.17668,0.14631 -0.27406,0.20131 -0.0974,0.055 -0.1986,0.10352 -0.29944,0.16157 -0.10084,0.058 -0.20147,0.12567 -0.29521,0.21908 -0.063,0.0627 -0.10784,0.1525 -0.14549,0.24699 -0.0376,0.0945 -0.0678,0.19355 -0.1015,0.27406 -0.17206,0.41169 -0.32653,0.84974 -0.49399,1.2815 -0.0837,0.21588 -0.17104,0.42995 -0.26476,0.63863 -0.0937,0.20868 -0.19422,0.41147 -0.30535,0.60479 -0.0412,0.0716 -0.0916,0.1333 -0.14973,0.18356 -0.0581,0.0503 -0.12384,0.0894 -0.1937,0.11588 -0.0699,0.0265 -0.14429,0.0404 -0.22077,0.0406 -0.0765,1.7e-4 -0.15466,-0.0137 -0.23262,-0.0423 -0.0811,-0.0298 -0.1547,-0.0706 -0.21738,-0.12096 -0.0627,-0.0503 -0.11497,-0.11008 -0.1548,-0.17679 -0.0398,-0.0667 -0.067,-0.14019 -0.0795,-0.21908 -0.0125,-0.0789 -0.01,-0.16349 0.009,-0.25037 0.0455,-0.2062 0.11102,-0.41332 0.18863,-0.62087 0.0776,-0.20755 0.16707,-0.41475 0.26138,-0.62087 0.18862,-0.41225 0.39532,-0.81888 0.55827,-1.20875 0.0407,-0.0973 0.1028,-0.21095 0.15479,-0.3265 0.052,-0.11556 0.0934,-0.2331 0.0939,-0.34005 3.9e-4,-0.0833 -0.0311,-0.16322 -0.0694,-0.24191 -0.0383,-0.0787 -0.0827,-0.15622 -0.10658,-0.23431 -0.0472,-0.15451 -0.0621,-0.31646 -0.0491,-0.47623 0.0131,-0.15976 0.0539,-0.31723 0.11758,-0.46438 0.0576,-0.13293 0.13824,-0.25733 0.236,-0.36541 0.0978,-0.10808 0.21279,-0.20038 0.34003,-0.27068 0.0908,-0.0501 0.19703,-0.0803 0.29521,-0.12181 0.0491,-0.0208 0.0958,-0.0444 0.13788,-0.0744 0.042,-0.0301 0.0792,-0.0663 0.10827,-0.11335 0.074,-0.11955 0.14047,-0.2484 0.20132,-0.38149 0.0609,-0.13308 0.11602,-0.27093 0.16917,-0.41024 0.10631,-0.27863 0.20276,-0.56254 0.31128,-0.82219 l 1.3517,-3.23291 z M 56.171952,106.556 v 8.91293 h 0.0812 c 0.297192,-1.03159 0.975811,-2.03133 1.566553,-2.9174 2.965219,-4.44802 7.575071,-6.28646 12.774327,-5.92194 2.115523,0.14827 4.31609,0.66709 6.076734,1.90659 1.494877,1.05249 2.582775,2.54385 3.205846,4.25896 0.249548,0.68545 0.318677,1.43818 0.602257,2.10621 2.405591,-5.77777 8.064307,-8.6947 14.098118,-8.27176 3.838878,0.26908 7.373583,1.85621 9.049963,5.51676 1.17402,2.56416 1.07849,5.66828 1.07849,8.42656 v 13.20742 c 0,2.00694 -0.3766,4.44885 0.0998,6.40069 0.60444,2.47607 4.72891,1.94466 6.62485,1.94466 v 2.6738 l -12.153463,-0.24361 -7.292245,0.24361 v -2.6738 c 1.695009,0 4.886485,0.48457 6.114794,-0.97952 0.610919,-0.7284 0.556714,-1.62228 0.617484,-2.50462 0.137743,-2.01667 0.07359,-4.05277 0.07359,-6.07673 v -10.93879 c 0,-2.37892 0.130281,-4.86282 -0.29267,-7.21104 -0.606047,-3.35955 -2.484655,-5.87558 -6.108025,-5.95831 -1.37253,-0.0313 -2.796632,0.32922 -4.050874,0.86617 -0.99659,0.42667 -1.912349,0.99233 -2.754999,1.67398 -6.120498,4.94948 -4.942419,13.45433 -4.942419,20.43368 0,2.34157 -0.216309,4.80528 0.05752,7.12984 0.10776,0.91152 -0.006,1.82339 0.633556,2.58582 1.228308,1.46409 4.419784,0.97952 6.114794,0.97952 v 2.6738 l -12.234664,-0.24361 -7.211041,0.24361 v -2.6738 c 1.730657,0 4.9072,0.48144 6.12579,-1.05396 0.62874,-0.79321 0.598875,-1.95886 0.598875,-2.91655 v -5.59036 -10.93879 c 0,-2.45476 0.13006,-4.94368 -0.278292,-7.3726 -0.550149,-3.27626 -2.569353,-5.71751 -6.041204,-5.79675 -1.511889,-0.0345 -3.107003,0.36637 -4.456042,1.03619 -1.04439,0.51823 -1.956282,1.13617 -2.836203,1.90152 -5.698365,4.95823 -4.456042,13.29335 -4.456042,20.03612 v 6.4819 c 0,1.02818 -0.08028,2.30291 0.598874,3.15932 1.218512,1.5354 4.395133,1.05396 6.12579,1.05396 v 2.6738 l -12.153459,-0.24361 -7.292245,0.24361 v -2.6738 c 1.694932,0 4.885996,0.48457 6.114794,-0.97952 0.590022,-0.70328 0.558905,-1.56781 0.617489,-2.42341 0.101519,-1.48193 0.07359,-2.96931 0.07359,-4.45689 v -15.96157 c 0,-1.32732 -0.04722,-2.64769 -0.07951,-3.96967 -0.0219,-0.89239 -0.01409,-1.901 -0.536281,-2.67379 -1.218989,-1.80422 -4.302557,-1.45913 -6.190078,-1.45913 v -2.67295 l 5.18603,-0.41955 z m -39.822712,1.86007 c -0.2582,-6.8e-4 -0.514995,0.0117 -0.769742,0.0389 -1.50095,0.16027 -2.897162,0.32191 -4.294482,0.96175 -8.5216395,3.90192 -8.7895925,15.34505 -7.4605725,23.30964 1.0115,6.06217 5.622845,11.71961 12.2405845,11.08682 3.36272,-0.32167 6.326953,-2.27214 8.335204,-4.92889 0.596078,-0.78835 1.301821,-1.70313 1.556401,-2.67379 0.350587,-1.33689 0.155638,-2.92195 0.155638,-4.29448 v -8.02054 -5.83396 c 0,-0.9884 0.123581,-2.23594 -0.270678,-3.16018 -1.458112,-3.41778 -5.619351,-6.47506 -9.492353,-6.48528 z" />
    </g>
  </g>
</svg>
